<svg xmlns="http://www.w3.org/2000/svg" width="204" height="42" viewBox="0 0 204 42">
  <defs>
    <linearGradient id="distribution_logo-a" x1="0%" x2="100%" y1="48.396%" y2="51.604%">
      <stop offset="0%" stop-color="#0071FF"/>
      <stop offset="21.078%" stop-color="#00FBFF" stop-opacity=".755"/>
      <stop offset="45.882%" stop-color="#006CFF" stop-opacity=".918"/>
      <stop offset="71.851%" stop-color="#00FCA7"/>
      <stop offset="100%" stop-color="#00A2FF"/>
    </linearGradient>
  </defs>
  <path fill="url(#distribution_logo-a)" d="M54.4423791,0 C54.6573081,0 54.7920319,0.223805413 54.7149196,0.411650548 L54.6811891,0.4725774 L50.5748222,6.1353281 L50.5748222,35.614461 C50.5748222,35.8000016 50.4410377,35.9560245 50.2671177,35.9921311 L50.1903964,36 L47.3246765,36 C47.1412005,36 46.9844815,35.8671698 46.9481685,35.6919076 L46.9402507,35.614461 L46.9402507,11.1391575 L44.3075161,14.7731551 C44.1876951,14.9378854 44.0036842,15.0455359 43.8068354,15.0729313 L43.7075789,15.0798338 L40.300168,15.0798338 C40.0799969,15.0798338 39.9447489,14.8560284 40.0218088,14.6681833 L40.0555334,14.6072564 L50.2136949,0.612189265 C50.4622126,0.270526384 50.8395914,0.0525590821 51.255833,0.00833996412 L51.4135695,0 L54.4423791,0 Z M78.5805237,22.2352941 C79.3147594,22.2352941 79.9242951,22.8144863 79.9934646,23.5544744 L80,23.6950044 L80,32.0231943 C80,34.1507635 78.3705993,35.8883063 76.3276555,35.994825 L76.1287011,36 L56.1563184,36 C55.4165621,36 54.8118975,35.4213421 54.7433202,34.6814169 L54.7368421,34.5408929 L54.7368421,23.6950044 C54.7368421,22.9365511 55.2979917,22.312744 56.0192951,22.2419794 L56.1563184,22.2352941 L78.5805237,22.2352941 Z M119,1 C120.054362,1 120.918165,1.81587779 120.994514,2.85073766 L121,3 L121,21 C121,28.6275002 114.900248,34.8303269 107.312645,34.996578 L107,35 L101,35 C93.3724998,35 87.1696731,28.9002476 87.003422,21.312645 L87,21 L87,3 C87,1.8954305 87.8954305,1 89,1 C90.0543618,1 90.9181651,1.81587779 90.9945143,2.85073766 L91,3 L91,21 C91,26.4292399 95.3266708,30.8479317 100.720095,30.9961582 L101,31 L107,31 C112.42924,31 116.847932,26.6733292 116.996158,21.2799048 L117,21 L117,3 C117,1.8954305 117.895431,1 119,1 Z M149,1 C156.731986,1 163,7.2680135 163,15 L163,21 C163,28.7319865 156.731986,35 149,35 L143,35 C135.268014,35 129,28.7319865 129,21 L129,15 C129,7.2680135 135.268014,1 143,1 L149,1 Z M197.526316,1 C198.630885,1 199.526316,1.8954305 199.526316,3 C199.526316,4.0543618 198.710438,4.91816512 197.675578,4.99451426 L197.526316,5 L178.5,5 C175.462434,5 173,7.46243388 173,10.5 C173,13.4634791 175.34378,15.8795391 178.278793,15.9956328 L178.5,16 L191.5,16 C196.746705,16 201,20.2532949 201,25.5 C201,30.6562447 196.892106,34.8530394 191.770479,34.9962236 L191.5,35 L172.473684,35 C171.369115,35 170.473684,34.1045695 170.473684,33 C170.473684,31.9456382 171.289562,31.0818349 172.324422,31.0054857 L172.473684,31 L191.5,31 C194.537566,31 197,28.5375661 197,25.5 C197,22.5365209 194.65622,20.1204609 191.721207,20.0043672 L191.5,20 L178.5,20 C173.253295,20 169,15.7467051 169,10.5 C169,5.34375531 173.107894,1.14696065 178.229521,1.00377636 L178.5,1 L197.526316,1 Z M11.2129111,31.7647059 C11.392463,31.7647059 11.5380456,31.8801803 11.5716357,32.033301 L11.5789474,32.1010021 L11.5789474,34.6048803 C11.5789474,34.7671687 11.4558087,34.9029291 11.2875547,34.9343335 L11.2129111,34.9411765 L1.41866785,34.9411765 C1.24396872,34.9411765 1.09474655,34.825702 1.06017068,34.6725814 L1.05263158,34.6048803 L1.05263158,32.1010021 C1.05263158,31.9387137 1.18001636,31.8029532 1.34561658,31.7715488 L1.41866785,31.7647059 L11.2129111,31.7647059 Z M24.6160797,0 C24.8329591,0 25.0371637,0.0951641881 25.1743731,0.256852675 L25.2371433,0.343108018 L27.0140753,3.1651139 L35.4099348,3.1651139 C35.5910784,3.1651139 35.7458052,3.29469691 35.7816565,3.46785991 L35.7894737,3.54449005 L35.7894737,6.37340415 C35.7894737,6.55675969 35.6573898,6.71014365 35.4856809,6.74562472 L35.4099348,6.75335598 L22.235336,6.75335598 L18.4571992,14.1635681 L30.6426968,14.1635681 L28.681746,10.3139652 C28.593762,10.1414325 28.7479928,9.90641505 28.9557903,9.86113688 L29.0267813,9.85341752 L32.3908757,9.85341752 C32.5880388,9.85341752 32.7598523,9.93504725 32.8664813,10.0765549 L32.9141793,10.1521978 L35.4674407,15.167562 C35.4846925,15.2021031 35.4846925,15.240674 35.4846925,15.2786691 C35.5709513,15.4882183 35.616956,15.7173408 35.616956,15.957977 C35.616956,16.8997394 34.895559,17.6716072 33.9753886,17.7464396 L33.8285229,17.7523858 L30.7749603,17.7523858 L30.7864615,17.8565848 L30.7864615,27.4083435 L30.7979626,27.4083435 L30.7979626,30.9654987 C30.7979626,31.1488542 30.9300465,31.3017974 31.1017555,31.3371683 L31.1775015,31.3448748 L34.0412947,31.3448748 L34.0412947,31.3535101 L35.4099348,31.3535101 C35.5910784,31.3535101 35.7458052,31.4835338 35.7816565,31.6560357 L35.7894737,31.7323105 L35.7894737,34.5612246 C35.7894737,34.7450839 35.6573898,34.8980901 35.4856809,34.9334688 L35.4099348,34.9411765 L29.0440331,34.9411765 C29.0267813,34.9411765 29.0095295,34.9336926 28.9922778,34.9308141 C28.0417055,34.8799524 27.2779698,34.137043 27.2039726,33.193689 L27.1980941,33.0431444 L27.1980941,17.7523858 L21.6717783,17.7523858 L21.6717783,27.9184001 L21.6602771,27.9184001 L21.6602771,28.9293022 C21.6602771,32.1681038 19.1012651,34.8012851 15.8981872,34.9290871 L15.8694343,34.9364271 L15.8694343,34.9364271 L15.8406813,34.9411765 L15.4783942,34.9411765 C15.2972507,34.9411765 15.1425239,34.8111527 15.1066726,34.6378795 L15.0988554,34.5612246 L15.0988554,31.6217791 C15.0988554,31.4379198 15.2309392,31.2849137 15.4026482,31.2495349 L15.4783942,31.2418273 L15.6624131,31.2418273 C17.0070924,30.9097052 18.029609,29.7369338 18.1124842,28.3067024 L18.1179145,28.1187383 L18.1179145,27.9184001 L18.0776603,27.9184001 L18.0776603,17.7523858 L15.4783942,17.7523858 C14.489293,17.7523858 13.6842105,16.9493058 13.6842105,15.957977 C13.6842105,15.6229285 13.7819705,15.3126345 13.942987,15.0437898 L13.9437058,15.0121272 L13.9437058,15.0121272 L13.9487376,14.9804645 L18.1466674,6.75335598 L14.0637494,6.75335598 C13.8826058,6.75335598 13.7278791,6.62289146 13.6920277,6.44989374 L13.6842105,6.37340415 L13.6842105,3.54449005 C13.6842105,3.36063078 13.8162944,3.20806537 13.9880033,3.17279682 L14.0637494,3.1651139 L22.8966537,3.1651139 L21.3324936,0.67412666 C21.16263,0.403643468 21.3259604,0.0581100799 21.6234728,0.0065515894 L21.7005312,0 L24.6160797,0 Z M76.234282,26.0944785 L58.4908289,26.0944785 L58.4908289,32.1269423 L74.6857625,32.1269423 C75.4945641,32.1269423 76.1568705,31.4915323 76.2279638,30.6805761 L76.234282,30.5357375 L76.234282,26.0944785 Z M149,5 L143,5 C137.477153,5 133,9.4771525 133,15 L133,21 C133,26.5228475 137.477153,31 143,31 L149,31 C154.522847,31 159,26.5228475 159,21 L159,15 C159,9.4771525 154.522847,5 149,5 Z M9.85970157,0 C10.0597033,0 10.1913284,0.184638036 10.1492261,0.363111364 L10.1250885,0.42937723 L4.7885034,10.736733 L10.6327853,10.736733 L10.6378334,10.7385317 L10.6385545,10.7407621 L10.8347101,10.7407621 C11.0424042,10.7407621 11.2033672,10.9570853 11.1619841,11.1396547 L11.140482,11.1989179 L9.81354732,13.6940256 L5.05965961,22.8830436 L11.1981748,22.8830436 C11.3849553,22.8830436 11.5363989,23.0130421 11.5713414,23.1862816 L11.5789474,23.2629216 L11.5789474,26.0912858 C11.5789474,26.2741021 11.4508513,26.4273933 11.2758235,26.4628596 L11.1981748,26.4705882 L2.04809483,26.4705882 C1.05577846,26.4705882 0.248079092,25.6676643 0.248079092,24.6771037 C0.248079092,24.3662945 0.33461831,24.0785081 0.473081058,23.824105 L0.475965699,23.8175578 L0.47885034,23.8114424 L5.38273936,14.3242777 L1.80001573,14.3242777 C0.807699368,14.3242777 2.27373675e-13,13.5207782 2.27373675e-13,12.5307931 C2.27373675e-13,12.2332221 0.0807699368,11.9575227 0.207694123,11.710602 L0.214905725,11.6640526 L0.214905725,11.6640526 L0.230771248,11.6179348 L6.03466814,0.393691723 C6.1457268,0.182168758 6.35396179,0.0393907563 6.58593873,0.00700130223 L6.68659691,0 L9.85970157,0 Z M79.6080469,15.8823529 C79.8003118,15.8823529 79.9562022,15.9974557 79.9921707,16.1508448 L80,16.2187031 L80,18.722983 C80,18.8852974 79.8681427,19.0206895 79.6879756,19.0520014 L79.6080469,19.0588235 L55.1287952,19.0588235 C54.9417267,19.0588235 54.781939,18.9437207 54.744915,18.7906731 L54.7368421,18.722983 L54.7368421,16.2187031 C54.7368421,16.0559428 54.8732462,15.9204949 55.0505716,15.8891761 L55.1287952,15.8823529 L79.6080469,15.8823529 Z M79.6080469,9.52941176 C79.8003118,9.52941176 79.9562022,9.64416119 79.9921707,9.79716043 L80,9.86485032 L80,12.369934 C80,12.5327466 79.8681427,12.6678476 79.6879756,12.6990789 L79.6080469,12.7058824 L55.1287952,12.7058824 C54.9417267,12.7058824 54.781939,12.5911329 54.744915,12.4377922 L54.7368421,12.369934 L54.7368421,9.86485032 C54.7368421,9.70248379 54.8732462,9.56743854 55.0505716,9.53621421 L55.1287952,9.52941176 L79.6080469,9.52941176 Z M67.7060388,0 C67.9216937,0 68.1247454,0.089521786 68.2611801,0.241623563 L68.323596,0.322764721 L70.0904955,2.9774504 L79.622604,2.9774504 C79.8027248,2.9774504 79.956578,3.09935026 79.9922269,3.26224622 L80,3.33433286 L80,5.99551716 C80,6.16800132 79.8686619,6.31229096 79.6979224,6.34566831 L79.622604,6.35294118 L56.1668697,6.35294118 C55.9867489,6.35294118 55.8328957,6.23021206 55.7972468,6.06747159 L55.7894737,5.99551716 L55.7894737,3.33433286 C55.7894737,3.16137484 55.9208118,3.01785522 56.0915513,2.98467778 L56.1668697,2.9774504 L65.9963205,2.9774504 L64.4409915,0.634156859 C64.2732599,0.381477934 64.4322555,0.0591757886 64.7285885,0.00721347912 L64.8126694,0 L67.7060388,0 Z" transform="translate(1 3)"/>
</svg>
