<svg xmlns="http://www.w3.org/2000/svg" width="106" height="22" viewBox="0 0 106 22">
  <defs>
    <linearGradient id="distribution_logo_light-a" x1="0%" x2="100%" y1="48.412%" y2="51.588%">
      <stop offset="0%" stop-color="#0071FF"/>
      <stop offset="21.078%" stop-color="#00FBFF" stop-opacity=".755"/>
      <stop offset="45.882%" stop-color="#006CFF" stop-opacity=".918"/>
      <stop offset="71.851%" stop-color="#00FCA7"/>
      <stop offset="100%" stop-color="#00A2FF"/>
    </linearGradient>
  </defs>
  <path fill="url(#distribution_logo_light-a)" d="M27.2211896,0 C27.3235367,0 27.3895096,0.101499054 27.3622544,0.192299475 L27.3405946,0.2362887 L25.2874111,3.06766405 L25.2874111,17.8072305 C25.2874111,17.8955832 25.2267378,17.9705491 25.1458401,17.9930835 L25.0951982,18 L23.6623383,18 C23.5749687,18 23.4997339,17.9397595 23.4770825,17.8583233 L23.4701253,17.8072305 L23.4701253,5.56957876 L22.1537581,7.38657753 C22.0978416,7.46345168 22.0139669,7.5154644 21.9230094,7.53319452 L21.8537894,7.53991692 L20.150084,7.53991692 C20.0452406,7.53991692 19.9789111,7.43841787 20.0061154,7.34761745 L20.0277667,7.30362822 L25.1068475,0.306094632 C25.2266685,0.141364315 25.4064001,0.034142975 25.6056942,0.0068701497 L25.7067848,0 L27.2211896,0 Z M39.2902619,11.1176471 C39.6478193,11.1176471 39.946232,11.3923564 39.9934844,11.7484987 L40,11.8475022 L40,16.0115972 C40,17.0597837 39.209016,17.9186341 38.2086253,17.9945457 L38.0643506,18 L28.0781592,18 C27.7179133,18 27.421741,17.7255441 27.3748807,17.369444 L27.3684211,17.2704465 L27.3684211,11.8475022 C27.3684211,11.4781513 27.6345728,11.1726627 27.9816381,11.1243128 L28.0781592,11.1176471 L39.2902619,11.1176471 Z M60,0.5 C60.5128358,0.5 60.9355072,0.88604019 60.9932723,1.38337887 L61,1.5 L61,10.5 C61,14.2854517 57.9952166,17.3690987 54.2406498,17.495941 L54,17.5 L51,17.5 C47.2145483,17.5 44.1309013,14.4952166 44.004059,10.7406498 L44,10.5 L44,1.5 C44,0.94771525 44.4477153,0.5 45,0.5 C45.5128358,0.5 45.9355072,0.88604019 45.9932723,1.38337887 L46,1.5 L46,10.5 C46,13.1887547 48.1223067,15.3818181 50.7831104,15.4953805 L51,15.5 L54,15.5 C56.6887547,15.5 58.8818181,13.3776933 58.9953805,10.7168896 L59,10.5 L59,1.5 C59,0.94771525 59.4477153,0.5 60,0.5 Z M75,0.5 C78.8659932,0.5 82,3.63400675 82,7.5 L82,10.5 C82,14.3659932 78.8659932,17.5 75,17.5 L72,17.5 C68.1340068,17.5 65,14.3659932 65,10.5 L65,7.5 C65,3.63400675 68.1340068,0.5 72,0.5 L75,0.5 Z M99.2631579,0.5 C99.8154426,0.5 100.263158,0.94771525 100.263158,1.5 C100.263158,2.01283584 99.8771177,2.43550716 99.379779,2.49327227 L99.2631579,2.5 L89.75,2.5 C88.2312169,2.5 87,3.73121694 87,5.25 C87,6.71253184 88.1417046,7.90840428 89.5824777,7.99498121 L89.75,8 L96.25,8 C98.8733526,8 101,10.1266474 101,12.75 C101,15.3004817 98.9898587,17.3814697 96.467428,17.4951121 L96.25,17.5 L86.7368421,17.5 C86.1845574,17.5 85.7368421,17.0522847 85.7368421,16.5 C85.7368421,15.9871642 86.1228823,15.5644928 86.620221,15.5067277 L86.7368421,15.5 L96.25,15.5 C97.7687831,15.5 99,14.2687831 99,12.75 C99,11.2874682 97.8582954,10.0915957 96.4175223,10.0050188 L96.25,10 L89.75,10 C87.1266474,10 85,7.87335256 85,5.25 C85,2.69951834 87.0101413,0.61853034 89.532572,0.50488786 L89.75,0.5 L99.2631579,0.5 Z M5.60645555,15.8823529 C5.68853641,15.8823529 5.7564195,15.9306165 5.7802895,15.9974029 L5.78947368,16.050501 L5.78947368,17.3024401 C5.78947368,17.3766291 5.73800677,17.4397305 5.66488825,17.4620035 L5.60645555,17.4705882 L0.709333925,17.4705882 C0.629471466,17.4705882 0.560257335,17.4223246 0.53576618,17.3555382 L0.526315789,17.3024401 L0.526315789,16.050501 C0.526315789,15.9763121 0.579557429,15.9132107 0.651966058,15.8909377 L0.709333925,15.8823529 L5.60645555,15.8823529 Z M12.3080399,0 C12.4092502,0 12.50494,0.0414492908 12.573027,0.112705227 L12.6185717,0.171554009 L13.5070376,1.58255695 L17.7049674,1.58255695 C17.7912262,1.58255695 17.8655047,1.64132475 17.8878681,1.72171404 L17.8947368,1.77224502 L17.8947368,3.18670207 C17.8947368,3.27401424 17.8348349,3.34773385 17.7549656,3.36988171 L17.7049674,3.37667799 L11.117668,3.37667799 L9.22859959,7.08178404 L15.3213484,7.08178404 L14.340873,5.1569826 C14.2989758,5.07482418 14.3669267,4.96432799 14.4632449,4.93443435 L14.5133907,4.92670876 L16.1954379,4.92670876 C16.2874473,4.92670876 16.3684156,4.96226304 16.4221491,5.02452909 L16.4570897,5.07609891 L17.7337204,7.58378101 C17.7423462,7.60105155 17.7423462,7.62033698 17.7423462,7.63933457 C17.7854757,7.74410917 17.808478,7.8586704 17.808478,7.97898848 C17.808478,8.43652488 17.4679343,8.81386059 17.0265655,8.86920492 L16.9142615,8.87619292 L15.3874801,8.87619292 L15.3932307,8.92829238 L15.3932307,13.7041718 L15.3989813,13.7041718 L15.3989813,15.4827493 C15.3989813,15.5700615 15.4588833,15.6435812 15.5387526,15.6656624 L15.5887508,15.6724374 L17.0206474,15.6724374 L17.0206474,15.676755 L17.7049674,15.676755 C17.7912262,15.676755 17.8655047,15.7357227 17.8878681,15.8158455 L17.8947368,15.8661553 L17.8947368,17.2806123 C17.8947368,17.3681644 17.8348349,17.441724 17.7549656,17.4638119 L17.7049674,17.4705882 L14.5220165,17.4705882 C14.5133907,17.4705882 14.5047648,17.4668463 14.4961389,17.4654071 C14.0343224,17.4406969 13.6607042,17.0892977 13.6059572,16.6366995 L13.599047,16.5215722 L13.599047,8.87619292 L10.8358892,8.87619292 L10.8301386,13.9592001 L10.8301386,14.4646511 C10.8301386,16.0840519 9.55063256,17.4006426 7.9490936,17.4645435 L7.93471713,17.4682135 L7.93471713,17.4682135 L7.92034065,17.4705882 L7.73919711,17.4705882 C7.65293828,17.4705882 7.57865984,17.4116205 7.55629644,17.3311646 L7.54942768,17.2806123 L7.54942768,15.8108895 C7.54942768,15.7233375 7.60932965,15.6497778 7.68919893,15.6276899 L7.73919711,15.6209136 L7.83120653,15.6209136 C8.4860069,15.4591846 8.98802052,14.8987749 9.05204544,14.2090488 L9.05895723,14.0593692 L9.05895723,13.9592001 L9.03883017,13.9592001 L9.03883017,8.87619292 L7.73919711,8.87619292 C7.24464648,8.87619292 6.84210526,8.47465292 6.84210526,7.97898848 C6.84210526,7.81146426 6.89098527,7.65631727 6.97149351,7.52189491 L6.97185292,7.50606359 L6.97185292,7.50606359 L6.9743688,7.49023226 L9.0733337,3.37667799 L7.03187469,3.37667799 C6.94561586,3.37667799 6.87133742,3.31751041 6.84897402,3.23715443 L6.84210526,3.18670207 L6.84210526,1.77224502 C6.84210526,1.68469299 6.90200723,1.61133318 6.98187652,1.58931192 L7.03187469,1.58255695 L11.4483269,1.58255695 L10.6662468,0.33706333 C10.5857385,0.208865567 10.6549253,0.0469497772 10.7890533,0.00847391982 L10.8502656,0 L12.3080399,0 Z M38.117141,13.0472393 L29.2454144,13.0472393 L29.2454144,16.0634712 L37.3428812,16.0634712 C37.7353879,16.0634712 38.0588923,15.7641799 38.110084,15.3758319 L38.117141,15.2678687 L38.117141,13.0472393 Z M75,2.5 L72,2.5 C69.2385763,2.5 67,4.73857625 67,7.5 L67,10.5 C67,13.2614237 69.2385763,15.5 72,15.5 L75,15.5 C77.7614237,15.5 80,13.2614237 80,10.5 L80,7.5 C80,4.73857625 77.7614237,2.5 75,2.5 Z M4.92985079,0 C5.0262802,0 5.0909197,0.0858425562 5.07653854,0.171987162 L5.06254425,0.214688615 L2.3942517,5.36836652 L5.31927727,5.37038103 L5.41735505,5.37038103 C5.51625701,5.37038103 5.5939657,5.46848681 5.58326814,5.55668535 L5.570241,5.59945896 L4.90677366,6.84701278 L2.52982981,11.4415218 L5.5990874,11.4415218 C5.68803049,11.4415218 5.76094779,11.500478 5.78278292,11.5809183 L5.78947368,11.6314608 L5.78947368,13.0456429 C5.78947368,13.1326983 5.73138023,13.2063636 5.65024971,13.2285005 L5.5990874,13.2352941 L1.02404741,13.2352941 C0.52788923,13.2352941 0.124039546,12.8338322 0.124039546,12.3385519 C0.124039546,12.2219984 0.148378701,12.1119201 0.190972222,12.0078314 L0.23942517,11.9057212 L2.69136968,7.16213883 L0.900007867,7.16213883 C0.403849684,7.16213883 1.13686838e-13,6.76038909 1.13686838e-13,6.26539657 C1.13686838e-13,6.11661103 0.0403849684,5.97876137 0.103847062,5.85530102 L0.107452862,5.8320263 L0.107452862,5.8320263 L0.115385624,5.80896742 L3.01733407,0.196845862 C3.06810374,0.100149649 3.15948916,0.0321860251 3.26342853,0.00886842408 L3.34329846,0 L4.92985079,0 Z M39.8040235,7.94117647 C39.891916,7.94117647 39.9646054,7.98928474 39.9901655,8.05614707 L40,8.10935155 L40,9.36149149 C40,9.43569238 39.944889,9.49864082 39.8665934,9.52085216 L39.8040235,9.52941176 L27.5643976,9.52941176 C27.4788806,9.52941176 27.4047658,9.4813035 27.3785406,9.41457163 L27.3684211,9.36149149 L27.3684211,8.10935155 C27.3684211,8.03494682 27.4254324,7.97195761 27.5029679,7.94973811 L27.5643976,7.94117647 L39.8040235,7.94117647 Z M39.8040235,4.76470588 C39.891916,4.76470588 39.9646054,4.81266646 39.9901655,4.8793545 L40,4.93242516 L40,6.18496701 C40,6.25939562 39.944889,6.32224192 39.8665934,6.3444033 L39.8040235,6.35294118 L27.5643976,6.35294118 C27.4788806,6.35294118 27.4047658,6.3049806 27.3785406,6.23816206 L27.3684211,6.18496701 L27.3684211,4.93242516 C27.3684211,4.85820046 27.4254324,4.79539494 27.5029679,4.77324172 L27.5643976,4.76470588 L39.8040235,4.76470588 Z M33.8530194,0 C33.9536584,0 34.0488079,0.0389917113 34.1165105,0.106022795 L34.161798,0.16138236 L35.0452477,1.4887252 L39.811302,1.4887252 C39.8936429,1.4887252 39.9650051,1.53967437 39.9902563,1.61065661 L40,1.66716643 L40,2.99775858 C40,3.07660848 39.945106,3.14367423 39.8704502,3.16734653 L39.811302,3.17647059 L28.0834349,3.17647059 C28.0010939,3.17647059 27.9297317,3.12517483 27.9044805,3.05419258 L27.8947368,2.99775858 L27.8947368,1.66716643 C27.8947368,1.58809991 27.9496308,1.52133743 28.0242866,1.4977951 L28.0834349,1.4887252 L32.9981603,1.4887252 L32.2204957,0.31707843 C32.140442,0.19648167 32.2092382,0.044166067 32.3445242,0.00797149066 L32.4063347,0 L33.8530194,0 Z" transform="translate(3 2)"/>
</svg>
