<svg xmlns="http://www.w3.org/2000/svg" xmlns:xlink="http://www.w3.org/1999/xlink" width="170" height="46" viewBox="0 0 170 46">
  <defs>
    <linearGradient id="distribution_logo_transparent-c" x1="-1.235%" x2="100%" y1="48.389%" y2="51.238%">
      <stop offset="0%" stop-color="#FFF" stop-opacity=".25"/>
      <stop offset="18.011%" stop-color="#FFF" stop-opacity=".355"/>
      <stop offset="31.683%" stop-color="#FFF" stop-opacity=".35"/>
      <stop offset="41.24%" stop-color="#FFF" stop-opacity=".2"/>
      <stop offset="51.434%" stop-color="#FFF" stop-opacity=".4"/>
      <stop offset="61.233%" stop-color="#FFF" stop-opacity=".15"/>
      <stop offset="68.644%" stop-color="#FFF" stop-opacity=".364"/>
      <stop offset="82.365%" stop-color="#FFF" stop-opacity=".3"/>
      <stop offset="100%" stop-color="#FFF" stop-opacity=".14"/>
    </linearGradient>
    <path id="distribution_logo_transparent-b" d="M52.1928438,9 C52.3573574,9 52.4612372,9.16979936 52.4062012,9.31474906 L52.3779216,9.3675602 L49.1954872,13.7719219 L49.1954872,36.7001363 C49.1954872,36.8415006 49.095993,36.9608341 48.9652291,36.9920444 L48.8975572,37 L46.6766243,37 C46.5373323,37 46.4179392,36.9008614 46.3866696,36.7686766 L46.3786943,36.7001363 L46.3786943,17.6637892 L44.338325,20.4902317 C44.2480432,20.6147963 44.1107396,20.6973976 43.9629867,20.7214713 L43.8733736,20.7287597 L41.2326302,20.7287597 C41.0641041,20.7287597 40.9597785,20.5589603 41.0147649,20.4140106 L41.0430384,20.3611995 L48.9156136,9.47614721 C49.1052054,9.21456156 49.3915681,9.04620059 49.7081716,9.00819762 L49.8455164,9 L52.1928438,9 Z M70.8999059,26.2941176 C71.4641966,26.2941176 71.9334489,26.7371237 71.9935079,27.3057844 L72,27.4294479 L72,33.9069289 C72,35.5540792 70.7488262,36.9006652 69.1758012,36.9947489 L68.9997434,37 L53.5211467,37 C52.9526132,37 52.4870381,36.5574026 52.4274882,35.9887965 L52.4210526,35.8651389 L52.4210526,27.4294479 C52.4210526,26.8444557 52.8487256,26.3624501 53.4010045,26.3007827 L53.5211467,26.2941176 L70.8999059,26.2941176 Z M18.6900061,33.7058824 C18.826319,33.7058824 18.9373692,33.7920674 18.9663159,33.9075353 L18.9736842,33.9674461 L18.9736842,35.9149069 C18.9736842,36.0385552 18.8821072,36.1424042 18.7557942,36.1695519 L18.6900061,36.1764706 L11.0994676,36.1764706 C10.9668389,36.1764706 10.8531571,36.0902856 10.8233833,35.9748176 L10.8157895,35.9149069 L10.8157895,33.9674461 C10.8157895,33.8437978 10.9105243,33.7399487 11.0350329,33.712801 L11.0994676,33.7058824 L18.6900061,33.7058824 Z M29.0774618,9 C29.2408744,9 29.3950021,9.06996167 29.5011584,9.18941474 L29.5587861,9.26686179 L30.9359083,11.4617553 L37.4426995,11.4617553 C37.5802207,11.4617553 37.698096,11.5584703 37.7289682,11.6890214 L37.7368421,11.7568256 L37.7368421,13.9570921 C37.7368421,14.0967916 37.6386127,14.2141216 37.5095111,14.2447934 L37.4426995,14.2526102 L27.2323854,14.2526102 L24.3043294,20.0161085 L33.74809,20.0161085 L32.2283531,17.0219729 C32.1610074,16.8894375 32.2767717,16.7094954 32.4347922,16.6711445 L32.4957555,16.6637692 L35.1029287,16.6637692 C35.2514856,16.6637692 35.3814728,16.7237807 35.4645203,16.8282568 L35.508489,16.8961539 L37.4872666,20.7969927 C37.5006367,20.823858 37.5006367,20.8538575 37.5006367,20.8834093 C37.5674873,21.046392 37.6031409,21.2245984 37.6031409,21.4117599 C37.6031409,22.1374385 37.0543955,22.7334201 36.3507566,22.8010246 L36.2171053,22.8074112 L33.8505942,22.8074112 L33.8550509,22.8477651 L33.8550509,22.8477651 L33.8595076,22.8884548 L33.8595076,30.3176005 L33.8684211,30.3176005 L33.8684211,33.0842767 C33.8684211,33.2239762 33.9666505,33.3409772 34.0957521,33.3715551 L34.1625637,33.3793471 L36.3820034,33.3793471 L36.3820034,33.3860634 L37.4426995,33.3860634 C37.5802207,33.3860634 37.698096,33.4831074 37.7289682,33.6131886 L37.7368421,33.680686 L37.7368421,35.8809525 C37.7368421,36.0210357 37.6386127,36.1380916 37.5095111,36.1686773 L37.4426995,36.1764706 L32.5091256,36.1764706 C32.4957555,36.1764706 32.4823854,36.1706498 32.4690153,36.168411 C31.7391641,36.1292193 31.151434,35.5617204 31.0848147,34.8377173 L31.0785229,34.7002234 L31.0785229,22.8074112 L26.7956282,22.8074112 L26.7956282,30.7143112 L26.7867148,30.7143112 L26.7867148,31.5005684 C26.7867148,34.0196363 24.8034805,36.0676662 22.3210951,36.1670677 L22.2988115,36.1727766 L22.2988115,36.1727766 L22.276528,36.1764706 L21.9957555,36.1764706 C21.8582343,36.1764706 21.740359,36.0794266 21.7094869,35.9487815 L21.7016129,35.8809525 L21.7016129,33.5947171 C21.7016129,33.4546338 21.7998423,33.337578 21.9289439,33.3069923 L21.9957555,33.299199 L22.1383701,33.299199 C23.1714346,33.0431281 23.9591463,32.1445404 24.0353348,31.0452976 L24.0413837,30.8701298 L24.0413837,30.7143112 L24.0101868,30.7143112 L24.0101868,22.8074112 L21.9957555,22.8074112 C21.229202,22.8074112 20.6052632,22.1827934 20.6052632,21.4117599 C20.6052632,21.1511666 20.6810272,20.9098269 20.8058149,20.7007254 L20.806372,20.6760989 L20.806372,20.6760989 L20.8102716,20.6514724 L24.0636672,14.2526102 L20.8994058,14.2526102 C20.7618846,14.2526102 20.6440092,14.1552373 20.6131371,14.0247801 L20.6052632,13.9570921 L20.6052632,11.7568256 C20.6052632,11.6167423 20.7034926,11.5000154 20.8325942,11.4695237 L20.8994058,11.4617553 L27.7449066,11.4617553 L26.5326825,9.52432074 C26.4030329,9.31713243 26.5238428,9.05332721 26.747783,9.00707493 L26.8179117,9 L29.0774618,9 Z M101.982456,10 C102.796888,10 103.465682,10.610772 103.537479,11.3902041 L103.54386,11.5294118 L103.54386,25.2941176 C103.54386,31.1114471 98.8069907,35.8450898 92.9052101,35.9962746 L92.6140351,36 L87.9298246,36 C81.99081,36 77.1581505,31.3601852 77.0038033,25.5793267 L77,25.2941176 L77,11.5294118 C77,10.684741 77.6990642,10 78.5614035,10 C79.3758351,10 80.0446293,10.610772 80.1164261,11.3902041 L80.122807,11.5294118 L80.122807,25.2941176 C80.122807,29.4362533 83.4849851,32.8091998 87.6819976,32.9373966 L87.9298246,32.9411765 L92.6140351,32.9411765 C96.8428146,32.9411765 100.286315,29.6478864 100.417194,25.5368668 L100.421053,25.2941176 L100.421053,11.5294118 C100.421053,10.684741 101.120117,10 101.982456,10 Z M125.403509,10 C131.439884,10 136.333333,14.7931868 136.333333,20.7058824 L136.333333,25.2941176 C136.333333,31.2068132 131.439884,36 125.403509,36 L120.719298,36 C114.682923,36 109.789474,31.2068132 109.789474,25.2941176 L109.789474,20.7058824 C109.789474,14.7931868 114.682923,10 120.719298,10 L125.403509,10 Z M163.288089,10 C164.150428,10 164.849492,10.684741 164.849492,11.5294118 C164.849492,12.3271564 164.225944,12.9822476 163.430208,13.0525733 L163.288089,13.0588235 L148.434211,13.0588235 C146.062777,13.0588235 144.140351,14.9418612 144.140351,17.2647059 C144.140351,19.5192316 145.951356,21.3594409 148.226169,21.4657382 L148.434211,21.4705882 L158.583333,21.4705882 C162.679445,21.4705882 166,24.7231078 166,28.7352941 C166,32.6672367 162.810939,35.8695953 158.828149,35.9961169 L158.583333,36 L143.729455,36 C142.867116,36 142.168052,35.315259 142.168052,34.4705882 C142.168052,33.6728436 142.7916,33.0177524 143.587336,32.9474267 L143.729455,32.9411765 L158.583333,32.9411765 C160.954767,32.9411765 162.877193,31.0581388 162.877193,28.7352941 C162.877193,26.4807684 161.066187,24.6405591 158.791375,24.5342618 L158.583333,24.5294118 L148.434211,24.5294118 C144.338099,24.5294118 141.017544,21.2768922 141.017544,17.2647059 C141.017544,13.3327633 144.206605,10.1304047 148.189395,10.0038831 L148.434211,10 L163.288089,10 Z M69.0815686,29.2957055 L55.3303924,29.2957055 L55.3303924,33.9876218 L67.8814659,33.9876218 C68.5036782,33.9876218 69.0140202,33.5006551 69.0753824,32.8765615 L69.0815686,32.750018 L69.0815686,29.2957055 Z M125.403509,13.0588235 L120.719298,13.0588235 C116.407602,13.0588235 112.912281,16.4825284 112.912281,20.7058824 L112.912281,25.2941176 C112.912281,29.5174716 116.407602,32.9411765 120.719298,32.9411765 L125.403509,32.9411765 C129.715206,32.9411765 133.210526,29.5174716 133.210526,25.2941176 L133.210526,20.7058824 C133.210526,16.4825284 129.715206,13.0588235 125.403509,13.0588235 Z M17.6412687,9 C17.7938482,9 17.8950788,9.13915469 17.8670814,9.27591016 L17.8469436,9.33396007 L13.7110901,17.3507924 L18.2448798,17.353926 L18.3969003,17.353926 C18.5533921,17.353926 18.6756513,17.51296 18.6528499,17.652286 L18.6338735,17.7102695 L17.6054992,19.6509088 L13.9212362,26.7979228 L18.6785855,26.7979228 C18.8203862,26.7979228 18.9359072,26.8949479 18.9660193,27.0255677 L18.9736842,27.0933835 L18.9736842,29.2932223 C18.9736842,29.4325109 18.8784204,29.5497633 18.7470221,29.5804213 L18.6785855,29.5882353 L11.5872735,29.5882353 C10.8182283,29.5882353 10.1922613,28.9637389 10.1922613,28.1933029 C10.1922613,27.9515624 10.2593292,27.7277285 10.3666378,27.5298594 L10.3688734,27.5247672 L10.371109,27.5200107 L14.171623,20.1411048 L11.3950122,20.1411048 C10.625967,20.1411048 10,19.5161608 10,18.7461724 C10,18.5147283 10.0625967,18.3002955 10.1609629,18.108246 L10.1665519,18.0720409 L10.1665519,18.0720409 L10.1788477,18.0361715 L14.6768678,9.30620467 C14.7611817,9.14504432 14.9177647,9.03519216 15.0931189,9.00709481 L15.1821126,9 L17.6412687,9 Z M71.6962364,21.3529412 C71.8422007,21.3529412 71.9611137,21.4388488 71.99211,21.5545017 L72,21.6145469 L72,23.5623201 C72,23.6859882 71.901939,23.7895627 71.7666825,23.8166316 L71.6962364,23.8235294 L52.7248163,23.8235294 C52.5827969,23.8235294 52.461066,23.7376218 52.4291841,23.6222185 L52.4210526,23.5623201 L52.4210526,21.6145469 C52.4210526,21.490539 52.522495,21.3869159 52.6558193,21.3598401 L52.7248163,21.3529412 L71.6962364,21.3529412 Z M71.6962364,16.4117647 C71.8422007,16.4117647 71.9611137,16.4974086 71.99211,16.6127657 L72,16.6726614 L72,18.6210598 C72,18.7451075 71.901939,18.8484725 71.7666825,18.8754737 L71.6962364,18.8823529 L52.7248163,18.8823529 C52.5827969,18.8823529 52.461066,18.7967091 52.4291841,18.6811023 L52.4210526,18.6210598 L52.4210526,16.6726614 C52.4210526,16.5489535 52.522495,16.4456371 52.6558193,16.4186428 L52.7248163,16.4117647 L71.6962364,16.4117647 Z M62.4721801,9 C62.63467,9 62.7879276,9.06581356 62.8934845,9.17818411 L62.9507869,9.25103923 L64.320134,11.3157948 L71.7075181,11.3157948 C71.8442629,11.3157948 71.9614727,11.4067754 71.9921705,11.529586 L72,11.59337 L72,13.66318 C72,13.7945965 71.9023251,13.9049699 71.7739525,13.9338232 L71.7075181,13.9411765 L53.529324,13.9411765 C53.3925792,13.9411765 53.2753694,13.8495769 53.2446716,13.7268547 L53.2368421,13.66318 L53.2368421,11.59337 C53.2368421,11.4615925 53.334517,11.3517864 53.4628896,11.3231026 L53.529324,11.3157948 L61.1471484,11.3157948 L59.9417684,9.49323311 C59.8141399,9.3002783 59.9306009,9.05512333 60.1522357,9.00802188 L60.2298188,9 L62.4721801,9 Z"/>
    <filter id="distribution_logo_transparent-a" width="113.5%" height="175.8%" x="-6.7%" y="-34.3%" filterUnits="objectBoundingBox">
      <feMorphology in="SourceAlpha" operator="dilate" radius="1" result="shadowSpreadOuter1"/>
      <feOffset dy="1" in="shadowSpreadOuter1" result="shadowOffsetOuter1"/>
      <feGaussianBlur in="shadowOffsetOuter1" result="shadowBlurOuter1" stdDeviation="3"/>
      <feComposite in="shadowBlurOuter1" in2="SourceAlpha" operator="out" result="shadowBlurOuter1"/>
      <feColorMatrix in="shadowBlurOuter1" values="0 0 0 0 0   0 0 0 0 0   0 0 0 0 0  0 0 0 0.2 0"/>
    </filter>
  </defs>
  <g fill="none">
    <use fill="#000" filter="url(#distribution_logo_transparent-a)" xlink:href="#distribution_logo_transparent-b"/>
    <path fill="url(#distribution_logo_transparent-c)" fill-rule="evenodd" stroke="#000" stroke-opacity=".05" d="M53.0992387,8.49700683 L49.6800696,8.50828762 C49.2108521,8.55550303 48.7846498,8.8011736 48.5062959,9.18891897 L40.232355,21.3070567 L44.6079355,20.9709972 L45.9019722,19.1784196 L46.1852246,37.5620304 L49.6954872,37.1441433 L49.6954872,13.915927 L53.0992387,8.49700683 Z M70.8999059,25.7941176 C71.3105373,25.7941176 71.6874406,25.9533404 71.972804,26.2173237 C72.2618074,26.4846743 72.4561666,26.8597849 72.4934842,27.2815244 L72.4934842,27.2815244 L72.5,33.9069289 C72.5,34.8586925 72.1387838,35.7233941 71.5517214,36.3652551 C70.9524969,37.0204135 70.1183411,37.4434088 69.1902413,37.4947441 L69.1902413,37.4947441 L53.5211467,37.5 C53.1081061,37.5 52.7318415,37.3408955 52.4474223,37.0779198 C52.1583236,36.8106172 51.9646061,36.4352892 51.9275061,36.0128091 L51.9275061,36.0128091 L51.9210526,27.4294479 C51.9210526,27.0120541 52.0739558,26.6317787 52.323972,26.3438212 C52.5875226,26.0402752 52.9587731,25.8392633 53.3757156,25.8007923 L53.3757156,25.8007923 Z M68.5815686,29.7957055 L55.8303924,29.7957055 L55.8303924,33.4876218 L68.3400488,33.2925664 C68.4735153,33.1549292 68.5570006,32.9581668 68.5815686,32.7257756 L68.5815686,29.7957055 Z M19.1279993,33.1910574 L10.2498534,33.4859694 L10.6614744,36.6912955 L19.5396203,36.3963835 L19.1279993,33.1910574 Z M29.2860986,8.44651034 L25.7272901,9.17975942 L26.8647511,10.9977039 L20.0455507,11.2795308 L20.4548731,14.7526102 L23.2508529,14.7526102 L20.3668983,20.460687 C20.2029011,20.7413921 20.1052632,21.0642641 20.1052632,21.4117599 C20.1052632,21.9349188 20.3168874,22.4083958 20.6584433,22.7512189 C21.0010142,23.0950607 21.4741898,23.3074112 21.9957555,23.3074112 L23.5117108,23.3074112 L23.5352789,31.0277303 C23.5012594,31.4637382 23.3238319,31.8584078 23.0114705,32.1996397 C22.5958045,32.6537242 21.9541588,33.0113591 21.1085082,33.2674646 L21.9271698,36.666892 C23.4699541,36.726629 24.8699351,36.106913 25.8519257,35.080749 C26.7403443,34.1523661 27.2867148,32.8913876 27.2867148,31.5005684 L27.2955961,30.7199791 L27.2956262,23.3074112 L30.5787844,23.3074112 L30.5848259,34.8591613 C30.6245939,35.3581303 30.8482346,35.8032539 31.1950338,36.129221 C31.5335405,36.4473938 31.9905037,36.6527806 32.5098182,36.6772297 L38.2956242,36.3501633 L37.8875444,32.8888701 L36.4128278,32.8795322 L34.3669903,32.6393706 L34.359505,30.3159897 L34.3511864,23.3061341 L36.3735704,23.300968 C36.8649881,23.2603188 37.3028765,23.0310834 37.6151735,22.6846536 C37.9182553,22.3484462 38.1031409,21.902006 38.1031409,21.4117599 C38.1031409,21.165711 38.0590014,20.9311066 37.9463145,20.5921244 L35.3702748,16.1265879 L31.4604534,16.6137947 L32.9335842,19.5161085 L25.1191717,19.5161085 L27.5435398,14.7440544 L38.2974067,14.4415198 L37.8872228,10.9617553 L31.1849259,10.9617553 L29.2860986,8.44651034 Z M101.982456,9.5 C101.414418,9.5 100.900601,9.72628525 100.528502,10.0907606 C100.152617,10.4589435 99.9210526,10.967841 99.9210526,11.5294118 L99.917196,25.5287067 C99.853969,27.4487408 99.0162359,29.1767499 97.7013599,30.4244176 C96.3851864,31.6733166 94.5910379,32.4411765 92.6140351,32.4411765 L87.6899424,32.4374026 C85.724595,32.3754712 83.9548233,31.5543333 82.6774259,30.2627261 C81.4061083,28.9772664 80.622807,27.225425 80.622807,25.2941176 L80.6164163,11.3687411 C80.5740753,10.8386046 80.3251569,10.3648617 79.946928,10.0267217 C79.5814661,9.6999955 79.0953803,9.5 78.5614035,9.5 C77.9933657,9.5 77.4795487,9.72628525 77.1074493,10.0907606 C76.7315649,10.4589435 76.5,10.967841 76.5,11.5294118 L76.5038051,25.5859924 C76.5829768,28.6192784 77.891358,31.3535265 79.960503,33.3269699 C82.0187498,35.2900191 84.8299063,36.5 87.9298246,36.5 L92.9117333,36.4962699 C96.0032839,36.4187147 98.7890723,35.1377006 100.80013,33.1146383 C102.80796,31.0948226 104.04386,28.3357076 104.04386,25.2941176 L104.037469,11.3687411 C103.995128,10.8386046 103.74621,10.3648617 103.367981,10.0267217 C103.002519,9.6999955 102.516433,9.5 101.982456,9.5 Z M125.403509,9.5 C128.558565,9.5 131.414487,10.7533967 133.481937,12.7784866 C135.553172,14.8072841 136.833333,17.6102992 136.833333,20.7058824 L136.833333,20.7058824 L136.833333,25.2941176 C136.833333,28.3897008 135.553172,31.1927159 133.481937,33.2215134 C131.414487,35.2466033 128.558565,36.5 125.403509,36.5 L125.403509,36.5 L120.719298,36.5 C117.564242,36.5 114.70832,35.2466033 112.64087,33.2215134 C110.569635,31.1927159 109.289474,28.3897008 109.289474,25.2941176 L109.289474,25.2941176 L109.289474,20.7058824 C109.289474,17.6102992 110.569635,14.8072841 112.64087,12.7784866 C114.70832,10.7533967 117.564242,9.5 120.719298,9.5 L120.719298,9.5 Z M125.403509,13.5588235 L120.719298,13.5588235 C118.700318,13.5588235 116.87203,14.3596497 115.548778,15.6557889 C114.229312,16.9482206 113.412281,18.7334407 113.412281,20.7058824 L113.412281,25.2941176 C113.412281,27.2665593 114.229312,29.0517794 115.548778,30.3442111 C116.87203,31.6403503 118.700318,32.4411765 120.719298,32.4411765 L125.403509,32.4411765 C127.422489,32.4411765 129.250777,31.6403503 130.574029,30.3442111 C131.893495,29.0517794 132.710526,27.2665593 132.710526,25.2941176 L132.710526,20.7058824 C132.710526,18.7334407 131.893495,16.9482206 130.574029,15.6557889 C129.250777,14.3596497 127.422489,13.5588235 125.403509,13.5588235 Z M163.288089,9.5 L148.181515,9.50388509 C146.050099,9.56951091 144.131614,10.4613816 142.747691,11.8624727 C141.366585,13.2607126 140.517544,15.1657203 140.517544,17.2647059 C140.517544,19.4100344 141.404481,21.3527554 142.83996,22.7588224 C144.271654,24.1611819 146.249286,25.0294118 148.434211,25.0294118 L158.779236,25.0342562 C159.783051,25.0840348 160.684381,25.5150887 161.334287,26.1833204 C161.980004,26.8472466 162.377193,27.7457138 162.377193,28.7352941 C162.377193,29.7574811 161.953385,30.6824072 161.269675,31.3521083 C160.582181,32.0255171 159.632182,32.4411765 158.583333,32.4411765 L143.566666,32.4474352 C143.030257,32.4888417 142.551976,32.7320892 142.210078,33.0990112 C141.872968,33.4607941 141.668052,33.9423514 141.668052,34.4705882 C141.668052,35.032159 141.899617,35.5410565 142.275501,35.9092394 C142.6476,36.2737148 143.161417,36.5 143.729455,36.5 L158.836029,36.4961149 C160.967444,36.4304891 162.88593,35.5386184 164.269853,34.1375273 C165.650959,32.7392874 166.5,30.8342797 166.5,28.7352941 C166.5,26.5899656 165.613062,24.6472446 164.177584,23.2411776 C162.74589,21.8388181 160.768257,20.9705882 158.583333,20.9705882 L148.238308,20.9657438 C147.234493,20.9159652 146.333163,20.4849113 145.683257,19.8166796 C145.037539,19.1527534 144.640351,18.2542862 144.640351,17.2647059 C144.640351,16.2425189 145.064159,15.3175928 145.747868,14.6478917 C146.435363,13.9744829 147.385362,13.5588235 148.434211,13.5588235 L163.450878,13.5525648 C163.987287,13.5111583 164.465568,13.2679108 164.807466,12.9009888 C165.144576,12.5392059 165.349492,12.0576486 165.349492,11.5294118 C165.349492,10.967841 165.117927,10.4589435 164.742043,10.0907606 C164.369943,9.72628525 163.856126,9.5 163.288089,9.5 Z M18.4302281,8.49780136 L15.0588632,8.50718825 C14.7120348,8.54760398 14.3990288,8.75866798 14.2338353,9.07442426 L9.71609603,17.8800062 C9.58242736,18.1409795 9.5,18.4324484 9.5,18.7461724 C9.5,19.269011 9.71231014,19.7427067 10.0553278,20.0857048 C10.3985446,20.428902 10.8725163,20.6411048 11.3950122,20.6411048 L13.3517339,20.6411048 L9.92211765,27.300945 C9.78124959,27.5604555 9.6922613,27.8650854 9.6922613,28.1933029 C9.6922613,28.7163746 9.90455447,29.1899882 10.247479,29.5328931 C10.5930445,29.8784389 11.0711955,30.0911304 11.5980002,30.0882055 L19.5337014,29.7712539 L19.1229389,26.2979228 L14.7415095,26.2979228 L18.0734295,19.8344105 L18.9029408,16.8543808 L14.4987586,16.8513367 L18.4302281,8.49780136 Z M72.1313776,20.8469893 L51.8486528,21.1222695 L52.2896846,24.329472 L72.5723876,24.0546092 L72.1313776,20.8469893 Z M72.1313775,15.9058291 L51.8486747,16.1803629 L52.2896656,19.3882978 L72.5723902,19.1133464 L72.1313775,15.9058291 Z M62.6739754,8.45125554 L59.1123298,9.14549891 L60.2379042,10.8473927 L52.6731148,11.1128436 L53.0885809,14.4478666 L72.5651131,14.1547313 L72.1490849,10.8157948 L64.5608263,10.8157948 L62.6739754,8.45125554 Z"/>
  </g>
</svg>
